<svg id="visual" viewBox="0 0 960 540" width="960" height="540" xmlns="http://www.w3.org/2000/svg" xmlns:xlink="http://www.w3.org/1999/xlink" version="1.1"><rect x="0" y="0" width="960" height="540" fill="#001220"></rect><path d="M0 347L22.8 335.8C45.7 324.7 91.3 302.3 137 294.8C182.7 287.3 228.3 294.7 274 305.8C319.7 317 365.3 332 411.2 342.3C457 352.7 503 358.3 548.8 353.3C594.7 348.3 640.3 332.7 686 323.2C731.7 313.7 777.3 310.3 823 316.5C868.7 322.7 914.3 338.3 937.2 346.2L960 354L960 541L937.2 541C914.3 541 868.7 541 823 541C777.3 541 731.7 541 686 541C640.3 541 594.7 541 548.8 541C503 541 457 541 411.2 541C365.3 541 319.7 541 274 541C228.3 541 182.7 541 137 541C91.3 541 45.7 541 22.8 541L0 541Z" fill="#fa7268"></path><path d="M0 363L22.8 373.3C45.7 383.7 91.3 404.3 137 414.3C182.7 424.3 228.3 423.7 274 417.2C319.7 410.7 365.3 398.3 411.2 398.2C457 398 503 410 548.8 403.5C594.7 397 640.3 372 686 367.2C731.7 362.3 777.3 377.7 823 382C868.7 386.3 914.3 379.7 937.2 376.3L960 373L960 541L937.2 541C914.3 541 868.7 541 823 541C777.3 541 731.7 541 686 541C640.3 541 594.7 541 548.8 541C503 541 457 541 411.2 541C365.3 541 319.7 541 274 541C228.3 541 182.7 541 137 541C91.3 541 45.7 541 22.8 541L0 541Z" fill="#e34c67"></path><path d="M0 429L22.8 435.5C45.7 442 91.3 455 137 461.3C182.7 467.7 228.3 467.3 274 469.3C319.7 471.3 365.3 475.7 411.2 475C457 474.3 503 468.7 548.8 459.7C594.7 450.7 640.3 438.3 686 439.3C731.7 440.3 777.3 454.7 823 465.3C868.7 476 914.3 483 937.2 486.5L960 490L960 541L937.2 541C914.3 541 868.7 541 823 541C777.3 541 731.7 541 686 541C640.3 541 594.7 541 548.8 541C503 541 457 541 411.2 541C365.3 541 319.7 541 274 541C228.3 541 182.7 541 137 541C91.3 541 45.7 541 22.8 541L0 541Z" fill="#c62368"></path></svg>