<svg id="visual" viewBox="0 0 960 540" width="960" height="540" xmlns="http://www.w3.org/2000/svg" xmlns:xlink="http://www.w3.org/1999/xlink" version="1.1"><rect x="0" y="0" width="960" height="540" fill="#001220"></rect><path d="M0 278L20 289.3C40 300.7 80 323.3 120 323C160 322.7 200 299.3 240 292.7C280 286 320 296 360 301.5C400 307 440 308 480 311.3C520 314.7 560 320.3 600 321.8C640 323.3 680 320.7 720 317.7C760 314.7 800 311.3 840 313C880 314.7 920 321.3 940 324.7L960 328L960 541L940 541C920 541 880 541 840 541C800 541 760 541 720 541C680 541 640 541 600 541C560 541 520 541 480 541C440 541 400 541 360 541C320 541 280 541 240 541C200 541 160 541 120 541C80 541 40 541 20 541L0 541Z" fill="#312e81"></path><path d="M0 333L20 332.8C40 332.7 80 332.3 120 339.8C160 347.3 200 362.7 240 368.7C280 374.7 320 371.3 360 374.5C400 377.7 440 387.3 480 381.7C520 376 560 355 600 352.3C640 349.7 680 365.3 720 371.5C760 377.7 800 374.3 840 366.2C880 358 920 345 940 338.5L960 332L960 541L940 541C920 541 880 541 840 541C800 541 760 541 720 541C680 541 640 541 600 541C560 541 520 541 480 541C440 541 400 541 360 541C320 541 280 541 240 541C200 541 160 541 120 541C80 541 40 541 20 541L0 541Z" fill="#4240a5"></path><path d="M0 401L20 402.8C40 404.7 80 408.3 120 411.8C160 415.3 200 418.7 240 415.3C280 412 320 402 360 399.7C400 397.3 440 402.7 480 408.3C520 414 560 420 600 425.3C640 430.7 680 435.3 720 433C760 430.7 800 421.3 840 414.2C880 407 920 402 940 399.5L960 397L960 541L940 541C920 541 880 541 840 541C800 541 760 541 720 541C680 541 640 541 600 541C560 541 520 541 480 541C440 541 400 541 360 541C320 541 280 541 240 541C200 541 160 541 120 541C80 541 40 541 20 541L0 541Z" fill="#5252ca"></path><path d="M0 477L20 478.7C40 480.3 80 483.7 120 481.8C160 480 200 473 240 472.2C280 471.3 320 476.7 360 477.3C400 478 440 474 480 470.8C520 467.7 560 465.3 600 465C640 464.7 680 466.3 720 465.8C760 465.3 800 462.7 840 465.7C880 468.7 920 477.3 940 481.7L960 486L960 541L940 541C920 541 880 541 840 541C800 541 760 541 720 541C680 541 640 541 600 541C560 541 520 541 480 541C440 541 400 541 360 541C320 541 280 541 240 541C200 541 160 541 120 541C80 541 40 541 20 541L0 541Z" fill="#6366f1"></path></svg>