<svg id="visual" viewBox="0 0 900 675" width="900" height="675" xmlns="http://www.w3.org/2000/svg" xmlns:xlink="http://www.w3.org/1999/xlink" version="1.1"><rect x="0" y="0" width="900" height="675" fill="#001220"></rect><path d="M0 451L18.8 452.8C37.7 454.7 75.3 458.3 112.8 461.2C150.3 464 187.7 466 225.2 462.3C262.7 458.7 300.3 449.3 337.8 453.8C375.3 458.3 412.7 476.7 450.2 479.8C487.7 483 525.3 471 562.8 462.3C600.3 453.7 637.7 448.3 675.2 455.8C712.7 463.3 750.3 483.7 787.8 486.7C825.3 489.7 862.7 475.3 881.3 468.2L900 461L900 676L881.3 676C862.7 676 825.3 676 787.8 676C750.3 676 712.7 676 675.2 676C637.7 676 600.3 676 562.8 676C525.3 676 487.7 676 450.2 676C412.7 676 375.3 676 337.8 676C300.3 676 262.7 676 225.2 676C187.7 676 150.3 676 112.8 676C75.3 676 37.7 676 18.8 676L0 676Z" fill="#312e81"></path><path d="M0 534L18.8 533.7C37.7 533.3 75.3 532.7 112.8 536C150.3 539.3 187.7 546.7 225.2 541.5C262.7 536.3 300.3 518.7 337.8 512.7C375.3 506.7 412.7 512.3 450.2 519.5C487.7 526.7 525.3 535.3 562.8 536C600.3 536.7 637.7 529.3 675.2 524.2C712.7 519 750.3 516 787.8 512.5C825.3 509 862.7 505 881.3 503L900 501L900 676L881.3 676C862.7 676 825.3 676 787.8 676C750.3 676 712.7 676 675.2 676C637.7 676 600.3 676 562.8 676C525.3 676 487.7 676 450.2 676C412.7 676 375.3 676 337.8 676C300.3 676 262.7 676 225.2 676C187.7 676 150.3 676 112.8 676C75.3 676 37.7 676 18.8 676L0 676Z" fill="#4240a5"></path><path d="M0 599L18.8 595.2C37.7 591.3 75.3 583.7 112.8 580C150.3 576.3 187.7 576.7 225.2 572.2C262.7 567.7 300.3 558.3 337.8 560.8C375.3 563.3 412.7 577.7 450.2 581C487.7 584.3 525.3 576.7 562.8 568.7C600.3 560.7 637.7 552.3 675.2 548.5C712.7 544.7 750.3 545.3 787.8 546.7C825.3 548 862.7 550 881.3 551L900 552L900 676L881.3 676C862.7 676 825.3 676 787.8 676C750.3 676 712.7 676 675.2 676C637.7 676 600.3 676 562.8 676C525.3 676 487.7 676 450.2 676C412.7 676 375.3 676 337.8 676C300.3 676 262.7 676 225.2 676C187.7 676 150.3 676 112.8 676C75.3 676 37.7 676 18.8 676L0 676Z" fill="#5252ca"></path><path d="M0 607L18.8 607C37.7 607 75.3 607 112.8 612.8C150.3 618.7 187.7 630.3 225.2 631.3C262.7 632.3 300.3 622.7 337.8 621.3C375.3 620 412.7 627 450.2 631.7C487.7 636.3 525.3 638.7 562.8 638.7C600.3 638.7 637.7 636.3 675.2 629.3C712.7 622.3 750.3 610.7 787.8 603.8C825.3 597 862.7 595 881.3 594L900 593L900 676L881.3 676C862.7 676 825.3 676 787.8 676C750.3 676 712.7 676 675.2 676C637.7 676 600.3 676 562.8 676C525.3 676 487.7 676 450.2 676C412.7 676 375.3 676 337.8 676C300.3 676 262.7 676 225.2 676C187.7 676 150.3 676 112.8 676C75.3 676 37.7 676 18.8 676L0 676Z" fill="#6366f1"></path></svg>