<svg id="visual" viewBox="0 0 900 675" width="900" height="675" xmlns="http://www.w3.org/2000/svg" xmlns:xlink="http://www.w3.org/1999/xlink" version="1.1"><rect x="0" y="0" width="900" height="675" fill="#001220"></rect><path d="M0 433L21.5 419.2C43 405.3 86 377.7 128.8 368.3C171.7 359 214.3 368 257.2 382C300 396 343 415 385.8 428C428.7 441 471.3 448 514.2 441.8C557 435.7 600 416.3 642.8 404.3C685.7 392.3 728.3 387.7 771.2 395.3C814 403 857 423 878.5 433L900 443L900 676L878.5 676C857 676 814 676 771.2 676C728.3 676 685.7 676 642.8 676C600 676 557 676 514.2 676C471.3 676 428.7 676 385.8 676C343 676 300 676 257.2 676C214.3 676 171.7 676 128.8 676C86 676 43 676 21.5 676L0 676Z" fill="#fa7268"></path><path d="M0 454L21.5 466.8C43 479.7 86 505.3 128.8 517.8C171.7 530.3 214.3 529.7 257.2 521.7C300 513.7 343 498.3 385.8 498.2C428.7 498 471.3 513 514.2 504.8C557 496.7 600 465.3 642.8 459.2C685.7 453 728.3 472 771.2 477.3C814 482.7 857 474.3 878.5 470.2L900 466L900 676L878.5 676C857 676 814 676 771.2 676C728.3 676 685.7 676 642.8 676C600 676 557 676 514.2 676C471.3 676 428.7 676 385.8 676C343 676 300 676 257.2 676C214.3 676 171.7 676 128.8 676C86 676 43 676 21.5 676L0 676Z" fill="#e34c67"></path><path d="M0 536L21.5 544.2C43 552.3 86 568.7 128.8 576.7C171.7 584.7 214.3 584.3 257.2 586.8C300 589.3 343 594.7 385.8 593.8C428.7 593 471.3 586 514.2 574.8C557 563.7 600 548.3 642.8 549.5C685.7 550.7 728.3 568.3 771.2 581.7C814 595 857 604 878.5 608.5L900 613L900 676L878.5 676C857 676 814 676 771.2 676C728.3 676 685.7 676 642.8 676C600 676 557 676 514.2 676C471.3 676 428.7 676 385.8 676C343 676 300 676 257.2 676C214.3 676 171.7 676 128.8 676C86 676 43 676 21.5 676L0 676Z" fill="#c62368"></path></svg>