<svg id="visual" viewBox="0 0 675 900" width="675" height="900" xmlns="http://www.w3.org/2000/svg" xmlns:xlink="http://www.w3.org/1999/xlink" version="1.1"><rect x="0" y="0" width="675" height="900" fill="#001220"></rect><path d="M0 578L16 559.5C32 541 64 504 96.2 491.7C128.3 479.3 160.7 491.7 192.8 510.5C225 529.3 257 554.7 289.2 571.8C321.3 589 353.7 598 385.8 589.5C418 581 450 555 482.2 539.2C514.3 523.3 546.7 517.7 578.8 528C611 538.3 643 564.7 659 577.8L675 591L675 901L659 901C643 901 611 901 578.8 901C546.7 901 514.3 901 482.2 901C450 901 418 901 385.8 901C353.7 901 321.3 901 289.2 901C257 901 225 901 192.8 901C160.7 901 128.3 901 96.2 901C64 901 32 901 16 901L0 901Z" fill="#fa7268"></path><path d="M0 605L16 622.2C32 639.3 64 673.7 96.2 690.5C128.3 707.3 160.7 706.7 192.8 696C225 685.3 257 664.7 289.2 664.3C321.3 664 353.7 684 385.8 673.2C418 662.3 450 620.7 482.2 612.5C514.3 604.3 546.7 629.7 578.8 636.8C611 644 643 633 659 627.5L675 622L675 901L659 901C643 901 611 901 578.8 901C546.7 901 514.3 901 482.2 901C450 901 418 901 385.8 901C353.7 901 321.3 901 289.2 901C257 901 225 901 192.8 901C160.7 901 128.3 901 96.2 901C64 901 32 901 16 901L0 901Z" fill="#e34c67"></path><path d="M0 715L16 726C32 737 64 759 96.2 769.7C128.3 780.3 160.7 779.7 192.8 782.8C225 786 257 793 289.2 792C321.3 791 353.7 782 385.8 767.2C418 752.3 450 731.7 482.2 733.2C514.3 734.7 546.7 758.3 578.8 776.2C611 794 643 806 659 812L675 818L675 901L659 901C643 901 611 901 578.8 901C546.7 901 514.3 901 482.2 901C450 901 418 901 385.8 901C353.7 901 321.3 901 289.2 901C257 901 225 901 192.8 901C160.7 901 128.3 901 96.2 901C64 901 32 901 16 901L0 901Z" fill="#c62368"></path></svg>