<svg id="visual" viewBox="0 0 675 900" width="675" height="900" xmlns="http://www.w3.org/2000/svg" xmlns:xlink="http://www.w3.org/1999/xlink" version="1.1"><rect x="0" y="0" width="675" height="900" fill="#001220"></rect><path d="M0 602L14 604.3C28 606.7 56 611.3 84.2 615C112.3 618.7 140.7 621.3 168.8 616.5C197 611.7 225 599.3 253.2 605.3C281.3 611.3 309.7 635.7 337.8 639.8C366 644 394 628 422 616.5C450 605 478 598 506.2 608C534.3 618 562.7 645 590.8 649C619 653 647 634 661 624.5L675 615L675 901L661 901C647 901 619 901 590.8 901C562.7 901 534.3 901 506.2 901C478 901 450 901 422 901C394 901 366 901 337.8 901C309.7 901 281.3 901 253.2 901C225 901 197 901 168.8 901C140.7 901 112.3 901 84.2 901C56 901 28 901 14 901L0 901Z" fill="#312e81"></path><path d="M0 712L14 711.5C28 711 56 710 84.2 714.5C112.3 719 140.7 729 168.8 722.2C197 715.3 225 691.7 253.2 683.7C281.3 675.7 309.7 683.3 337.8 693C366 702.7 394 714.3 422 715.2C450 716 478 706 506.2 699.2C534.3 692.3 562.7 688.7 590.8 684C619 679.3 647 673.7 661 670.8L675 668L675 901L661 901C647 901 619 901 590.8 901C562.7 901 534.3 901 506.2 901C478 901 450 901 422 901C394 901 366 901 337.8 901C309.7 901 281.3 901 253.2 901C225 901 197 901 168.8 901C140.7 901 112.3 901 84.2 901C56 901 28 901 14 901L0 901Z" fill="#4240a5"></path><path d="M0 799L14 793.8C28 788.7 56 778.3 84.2 773.5C112.3 768.7 140.7 769.3 168.8 763.3C197 757.3 225 744.7 253.2 748C281.3 751.3 309.7 770.7 337.8 775.2C366 779.7 394 769.3 422 758.7C450 748 478 737 506.2 731.8C534.3 726.7 562.7 727.3 590.8 729C619 730.7 647 733.3 661 734.7L675 736L675 901L661 901C647 901 619 901 590.8 901C562.7 901 534.3 901 506.2 901C478 901 450 901 422 901C394 901 366 901 337.8 901C309.7 901 281.3 901 253.2 901C225 901 197 901 168.8 901C140.7 901 112.3 901 84.2 901C56 901 28 901 14 901L0 901Z" fill="#5252ca"></path><path d="M0 809L14 809.2C28 809.3 56 809.7 84.2 817.7C112.3 825.7 140.7 841.3 168.8 842.7C197 844 225 831 253.2 829.2C281.3 827.3 309.7 836.7 337.8 842.8C366 849 394 852 422 852C450 852 478 849 506.2 839.7C534.3 830.3 562.7 814.7 590.8 805.5C619 796.3 647 793.7 661 792.3L675 791L675 901L661 901C647 901 619 901 590.8 901C562.7 901 534.3 901 506.2 901C478 901 450 901 422 901C394 901 366 901 337.8 901C309.7 901 281.3 901 253.2 901C225 901 197 901 168.8 901C140.7 901 112.3 901 84.2 901C56 901 28 901 14 901L0 901Z" fill="#6366f1"></path></svg>